<svg width="133" height="127" viewBox="0 0 133 127" fill="none" xmlns="http://www.w3.org/2000/svg">
<ellipse cx="66.5" cy="65.5" rx="66.5" ry="61.5" fill="#1E1E1E"/>
<path d="M109.071 45.3407C110.108 46.0705 110.212 47.5677 109.288 48.4346L67.2631 87.8436C66.0339 88.9964 64.0174 88.2053 63.8999 86.5243L58.8242 13.9385C58.7066 12.2574 60.5934 11.1935 61.971 12.1639L109.071 45.3407Z" fill="#FE9A5D"/>
<path d="M23.5928 81.457C22.5828 80.6915 22.5304 79.1915 23.4845 78.3574L66.859 40.439C68.1277 39.3299 70.1153 40.1908 70.1741 41.8749L72.7135 114.594C72.7723 116.278 70.8496 117.275 69.5067 116.257L23.5928 81.457Z" fill="#FE9A5D"/>
<rect x="33" y="67.1957" width="4.1963" height="63.71" transform="rotate(-89 33 67.1957)" fill="#1E1E1E"/>
<rect x="46" y="45.1957" width="4.1963" height="63.71" transform="rotate(-89 46 45.1957)" fill="#1E1E1E"/>
<rect x="26" y="93.1957" width="4.1963" height="63.71" transform="rotate(-89 26 93.1957)" fill="#1E1E1E"/>
<rect x="28.043" y="93.9324" width="4.1963" height="99.847" transform="rotate(-119 28.043 93.9324)" fill="#1E1E1E"/>
</svg>
